<svg id="visual" viewBox="0 0 960 540" width="960" height="540" xmlns="http://www.w3.org/2000/svg" xmlns:xlink="http://www.w3.org/1999/xlink" version="1.1"><rect x="0" y="0" width="960" height="540" fill="#7304ce"></rect><path d="M0 124L26.7 126.5C53.3 129 106.7 134 160 135.2C213.3 136.3 266.7 133.7 320 127.5C373.3 121.3 426.7 111.7 480 110.8C533.3 110 586.7 118 640 121.2C693.3 124.3 746.7 122.7 800 123.8C853.3 125 906.7 129 933.3 131L960 133L960 0L933.3 0C906.7 0 853.3 0 800 0C746.7 0 693.3 0 640 0C586.7 0 533.3 0 480 0C426.7 0 373.3 0 320 0C266.7 0 213.3 0 160 0C106.7 0 53.3 0 26.7 0L0 0Z" fill="#7304ce"></path><path d="M0 113L26.7 110.5C53.3 108 106.7 103 160 98.7C213.3 94.3 266.7 90.7 320 85C373.3 79.3 426.7 71.7 480 76C533.3 80.3 586.7 96.7 640 102.7C693.3 108.7 746.7 104.3 800 98C853.3 91.7 906.7 83.3 933.3 79.2L960 75L960 0L933.3 0C906.7 0 853.3 0 800 0C746.7 0 693.3 0 640 0C586.7 0 533.3 0 480 0C426.7 0 373.3 0 320 0C266.7 0 213.3 0 160 0C106.7 0 53.3 0 26.7 0L0 0Z" fill="#54198a"></path><path d="M0 58L26.7 56.8C53.3 55.7 106.7 53.3 160 54.3C213.3 55.3 266.7 59.7 320 63.2C373.3 66.7 426.7 69.3 480 66.2C533.3 63 586.7 54 640 51C693.3 48 746.7 51 800 57.7C853.3 64.3 906.7 74.7 933.3 79.8L960 85L960 0L933.3 0C906.7 0 853.3 0 800 0C746.7 0 693.3 0 640 0C586.7 0 533.3 0 480 0C426.7 0 373.3 0 320 0C266.7 0 213.3 0 160 0C106.7 0 53.3 0 26.7 0L0 0Z" fill="#351b4c"></path><path d="M0 50L26.7 43.5C53.3 37 106.7 24 160 17.5C213.3 11 266.7 11 320 14.8C373.3 18.7 426.7 26.3 480 27.8C533.3 29.3 586.7 24.7 640 26.2C693.3 27.7 746.7 35.3 800 37.8C853.3 40.3 906.7 37.7 933.3 36.3L960 35L960 0L933.3 0C906.7 0 853.3 0 800 0C746.7 0 693.3 0 640 0C586.7 0 533.3 0 480 0C426.7 0 373.3 0 320 0C266.7 0 213.3 0 160 0C106.7 0 53.3 0 26.7 0L0 0Z" fill="#141414"></path></svg>