<svg id="visual" viewBox="0 0 1500 100" width="1500" height="100" xmlns="http://www.w3.org/2000/svg" xmlns:xlink="http://www.w3.org/1999/xlink" version="1.1"><path d="M0 35L11.8 30.5C23.7 26 47.3 17 71.2 14.5C95 12 119 16 142.8 18.7C166.7 21.3 190.3 22.7 214.2 27.2C238 31.7 262 39.3 285.8 42C309.7 44.7 333.3 42.3 357.2 39C381 35.7 405 31.3 428.8 29.2C452.7 27 476.3 27 500 27.2C523.7 27.3 547.3 27.7 571.2 32.5C595 37.3 619 46.7 642.8 44C666.7 41.3 690.3 26.7 714.2 25.2C738 23.7 762 35.3 785.8 41.7C809.7 48 833.3 49 857.2 44.5C881 40 905 30 928.8 24.7C952.7 19.3 976.3 18.7 1000 18C1023.7 17.3 1047.3 16.7 1071.2 22.7C1095 28.7 1119 41.3 1142.8 43.5C1166.7 45.7 1190.3 37.3 1214.2 32.2C1238 27 1262 25 1285.8 29C1309.7 33 1333.3 43 1357.2 46.5C1381 50 1405 47 1428.8 44.8C1452.7 42.7 1476.3 41.3 1488.2 40.7L1500 40L1500 0L1488.2 0C1476.3 0 1452.7 0 1428.8 0C1405 0 1381 0 1357.2 0C1333.3 0 1309.7 0 1285.8 0C1262 0 1238 0 1214.2 0C1190.3 0 1166.7 0 1142.8 0C1119 0 1095 0 1071.2 0C1047.3 0 1023.7 0 1000 0C976.3 0 952.7 0 928.8 0C905 0 881 0 857.2 0C833.3 0 809.7 0 785.8 0C762 0 738 0 714.2 0C690.3 0 666.7 0 642.8 0C619 0 595 0 571.2 0C547.3 0 523.7 0 500 0C476.3 0 452.7 0 428.8 0C405 0 381 0 357.2 0C333.3 0 309.7 0 285.8 0C262 0 238 0 214.2 0C190.3 0 166.7 0 142.8 0C119 0 95 0 71.2 0C47.3 0 23.7 0 11.8 0L0 0Z" fill="#3c3c3c"></path><path d="M0 68L11.8 63.2C23.7 58.3 47.3 48.7 71.2 43.2C95 37.7 119 36.3 142.8 34.3C166.7 32.3 190.3 29.7 214.2 35.2C238 40.7 262 54.3 285.8 58.7C309.7 63 333.3 58 357.2 53.3C381 48.7 405 44.3 428.8 45.3C452.7 46.3 476.3 52.7 500 56.5C523.7 60.3 547.3 61.7 571.2 65.5C595 69.3 619 75.7 642.8 72.8C666.7 70 690.3 58 714.2 52.5C738 47 762 48 785.8 50.5C809.7 53 833.3 57 857.2 54.5C881 52 905 43 928.8 41.2C952.7 39.3 976.3 44.7 1000 42.2C1023.7 39.7 1047.3 29.3 1071.2 34.8C1095 40.3 1119 61.7 1142.8 65.3C1166.7 69 1190.3 55 1214.2 48.5C1238 42 1262 43 1285.8 46.7C1309.7 50.3 1333.3 56.7 1357.2 61.2C1381 65.7 1405 68.3 1428.8 68.8C1452.7 69.3 1476.3 67.7 1488.2 66.8L1500 66L1500 38L1488.2 38.7C1476.3 39.3 1452.7 40.7 1428.8 42.8C1405 45 1381 48 1357.2 44.5C1333.3 41 1309.7 31 1285.8 27C1262 23 1238 25 1214.2 30.2C1190.3 35.3 1166.7 43.7 1142.8 41.5C1119 39.3 1095 26.7 1071.2 20.7C1047.3 14.7 1023.7 15.3 1000 16C976.3 16.7 952.7 17.3 928.8 22.7C905 28 881 38 857.2 42.5C833.3 47 809.7 46 785.8 39.7C762 33.3 738 21.7 714.2 23.2C690.3 24.7 666.7 39.3 642.8 42C619 44.7 595 35.3 571.2 30.5C547.3 25.7 523.7 25.3 500 25.2C476.3 25 452.7 25 428.8 27.2C405 29.3 381 33.7 357.2 37C333.3 40.3 309.7 42.7 285.8 40C262 37.3 238 29.7 214.2 25.2C190.3 20.7 166.7 19.3 142.8 16.7C119 14 95 10 71.2 12.5C47.3 15 23.7 24 11.8 28.5L0 33Z" fill="#242424"></path><path d="M0 74L11.8 78.2C23.7 82.3 47.3 90.7 71.2 91.3C95 92 119 85 142.8 80.5C166.7 76 190.3 74 214.2 77C238 80 262 88 285.8 88.3C309.7 88.7 333.3 81.3 357.2 78.2C381 75 405 76 428.8 76.7C452.7 77.3 476.3 77.7 500 78.5C523.7 79.3 547.3 80.7 571.2 83.8C595 87 619 92 642.8 92.5C666.7 93 690.3 89 714.2 85.7C738 82.3 762 79.7 785.8 80.5C809.7 81.3 833.3 85.7 857.2 84.8C881 84 905 78 928.8 77.5C952.7 77 976.3 82 1000 83.8C1023.7 85.7 1047.3 84.3 1071.2 85C1095 85.7 1119 88.3 1142.8 89.7C1166.7 91 1190.3 91 1214.2 89.7C1238 88.3 1262 85.7 1285.8 82.7C1309.7 79.7 1333.3 76.3 1357.2 77.2C1381 78 1405 83 1428.8 85.8C1452.7 88.7 1476.3 89.3 1488.2 89.7L1500 90L1500 64L1488.2 64.8C1476.3 65.7 1452.7 67.3 1428.8 66.8C1405 66.3 1381 63.7 1357.2 59.2C1333.3 54.7 1309.7 48.3 1285.8 44.7C1262 41 1238 40 1214.2 46.5C1190.3 53 1166.7 67 1142.8 63.3C1119 59.7 1095 38.3 1071.2 32.8C1047.3 27.3 1023.7 37.7 1000 40.2C976.3 42.7 952.7 37.3 928.8 39.2C905 41 881 50 857.2 52.5C833.3 55 809.7 51 785.8 48.5C762 46 738 45 714.2 50.5C690.3 56 666.7 68 642.8 70.8C619 73.7 595 67.3 571.2 63.5C547.3 59.7 523.7 58.3 500 54.5C476.3 50.7 452.7 44.3 428.8 43.3C405 42.3 381 46.7 357.2 51.3C333.3 56 309.7 61 285.8 56.7C262 52.3 238 38.7 214.2 33.2C190.3 27.7 166.7 30.3 142.8 32.3C119 34.3 95 35.7 71.2 41.2C47.3 46.7 23.7 56.3 11.8 61.2L0 66Z" fill="#171717"></path><path d="M0 101L11.8 101C23.7 101 47.3 101 71.2 101C95 101 119 101 142.8 101C166.7 101 190.3 101 214.2 101C238 101 262 101 285.8 101C309.7 101 333.3 101 357.2 101C381 101 405 101 428.8 101C452.7 101 476.3 101 500 101C523.7 101 547.3 101 571.2 101C595 101 619 101 642.8 101C666.7 101 690.3 101 714.2 101C738 101 762 101 785.8 101C809.7 101 833.3 101 857.2 101C881 101 905 101 928.8 101C952.7 101 976.3 101 1000 101C1023.7 101 1047.3 101 1071.2 101C1095 101 1119 101 1142.8 101C1166.7 101 1190.3 101 1214.2 101C1238 101 1262 101 1285.8 101C1309.7 101 1333.3 101 1357.2 101C1381 101 1405 101 1428.8 101C1452.7 101 1476.3 101 1488.2 101L1500 101L1500 88L1488.2 87.7C1476.3 87.3 1452.7 86.7 1428.8 83.8C1405 81 1381 76 1357.2 75.2C1333.3 74.3 1309.7 77.7 1285.8 80.7C1262 83.7 1238 86.3 1214.2 87.7C1190.3 89 1166.7 89 1142.8 87.7C1119 86.3 1095 83.7 1071.2 83C1047.3 82.3 1023.7 83.7 1000 81.8C976.3 80 952.7 75 928.8 75.5C905 76 881 82 857.2 82.8C833.3 83.7 809.7 79.3 785.8 78.5C762 77.7 738 80.3 714.2 83.7C690.3 87 666.7 91 642.8 90.5C619 90 595 85 571.2 81.8C547.3 78.7 523.7 77.3 500 76.5C476.3 75.7 452.7 75.3 428.8 74.7C405 74 381 73 357.2 76.2C333.3 79.3 309.7 86.7 285.8 86.3C262 86 238 78 214.2 75C190.3 72 166.7 74 142.8 78.5C119 83 95 90 71.2 89.3C47.3 88.7 23.7 80.3 11.8 76.2L0 72Z" fill="#141414"></path></svg>