<svg id="visual" viewBox="0 0 900 600" width="900" height="600" xmlns="http://www.w3.org/2000/svg" xmlns:xlink="http://www.w3.org/1999/xlink" version="1.1"><rect x="0" y="0" width="900" height="600" fill="#292929"></rect><path d="M0 43L16.7 48C33.3 53 66.7 63 100 64.8C133.3 66.7 166.7 60.3 200 58.2C233.3 56 266.7 58 300 62C333.3 66 366.7 72 400 69.7C433.3 67.3 466.7 56.7 500 50.7C533.3 44.7 566.7 43.3 600 47C633.3 50.7 666.7 59.3 700 58.8C733.3 58.3 766.7 48.7 800 48.7C833.3 48.7 866.7 58.3 883.3 63.2L900 68L900 0L883.3 0C866.7 0 833.3 0 800 0C766.7 0 733.3 0 700 0C666.7 0 633.3 0 600 0C566.7 0 533.3 0 500 0C466.7 0 433.3 0 400 0C366.7 0 333.3 0 300 0C266.7 0 233.3 0 200 0C166.7 0 133.3 0 100 0C66.7 0 33.3 0 16.7 0L0 0Z" fill="#141414" stroke-linecap="round" stroke-linejoin="miter"></path></svg>